?xml version="1.0" encoding="utf-8"?>
<!-- Generator: Adobe Illustrator 19.0.0, SVG Export Plug-In . SVG Version: 6.00 Build 0)  -->
<svg version="1.1" id="Livello_1" xmlns="http://www.w3.org/2000/svg" xmlns:xlink="http://www.w3.org/1999/xlink" x="0px" y="0px"
	 viewBox="0 0 850.4 850.4" style="enable-background:new 0 0 850.4 850.4;" xml:space="preserve">
<style type="text/css">
	.st0{fill:#38A4DD;}
	.st1{fill:#B5E4FA;}
	.st2{fill:#FFFFFF;stroke:#37474F;stroke-width:7;stroke-miterlimit:10;}
	.st3{fill:#434343;stroke:#37474F;stroke-width:7;stroke-miterlimit:10;}
	.st4{fill:#37474F;}
	.st5{fill:#EF4438;}
	.st6{fill:#FEC111;}
	.st7{fill:#8BC249;}
	.st8{fill:#09BCD4;stroke:#09BCD4;stroke-width:7;stroke-miterlimit:10;}
	.st9{fill:none;stroke:#FFFFFF;stroke-width:9;stroke-miterlimit:10;}
	.st10{fill:#FFFFFF;}
	.st11{font-family:'Roboto-Light';}
	.st12{font-size:51.6057px;}
</style>
<g>
	<path class="st0" d="M716.6,108.6l133.8,133.8V86c0-47.5-38.5-86-86-86H86C38.5,0,0,38.5,0,86v678.4c0,47.5,38.5,86,86,86h162.4
		L132.1,734.1L716.6,108.6z"/>
	<path class="st1" d="M850.4,764.4v-522L716.6,108.6L132.1,734.1l116.3,116.3h516C811.9,850.4,850.4,811.9,850.4,764.4z"/>
</g>
<g id="XMLID_2_">
	<path id="XMLID_5_" class="st2" d="M130.2,724.7c0,13.5,11,24.5,24.5,24.5h541c13.5,0,24.5-11,24.5-24.5V161.2h-590L130.2,724.7
		L130.2,724.7z"/>
	<path id="XMLID_6_" class="st3" d="M695.7,101.2h-541c-13.5,0-24.5,11-24.5,24.5v35.5h590v-35.5
		C720.2,112.2,709.2,101.2,695.7,101.2z"/>
	<path id="XMLID_3_" class="st4" d="M695.7,101.2h-541c-13.5,0-24.5,11-24.5,24.5v35.5h590v-35.5
		C720.2,112.2,709.2,101.2,695.7,101.2z"/>
	<circle id="XMLID_4_" class="st5" cx="676.7" cy="131.2" r="13.5"/>
	<circle id="XMLID_7_" class="st6" cx="636.7" cy="131.2" r="13.5"/>
	<circle id="XMLID_8_" class="st7" cx="596.7" cy="131.2" r="13.5"/>
	<g id="XMLID_11_">
		<path id="XMLID_12_" class="st8" d="M157.8,700.4c0,12.3,9.9,22.2,22.2,22.2h490.3c12.3,0,22.2-9.9,22.2-22.2v-40.7H157.8V700.4z"
			/>
		<polyline id="XMLID_17_" class="st8" points="157.8,659.7 157.8,569.7 692.6,569.7 692.6,659.7 		"/>
	</g>
	<g id="XMLID_9_">
		<line id="XMLID_10_" class="st9" x1="265.5" y1="671.2" x2="584.9" y2="671.2"/>
		<text id="XMLID_13_" transform="matrix(1 0 0 1 275.5141 659.7126)" class="st10 st11 st12">x</text>
		<g id="Layer_1">
			<g id="XMLID_15_">
				<path id="XMLID_16_" class="st5" d="M537.6,649.6l-12.4-12.4c-5.7-5.7-5.7-14.9,0-20.6l0,0c5.7-5.7,14.9-5.7,20.6,0l12.4,12.4
					c5.7,5.7,5.7,14.9,0,20.6l0,0C552.6,655.3,543.3,655.3,537.6,649.6z"/>
				<path id="XMLID_18_" class="st5" d="M537.6,629l12.4-12.4c5.7-5.7,14.9-5.7,20.6,0l0,0c5.7,5.7,5.7,14.9,0,20.6l-12.4,12.4
					c-5.7,5.7-14.9,5.7-20.6,0l0,0C532,644,532,634.7,537.6,629z"/>
				<path id="XMLID_20_" class="st5" d="M546.5,658.5l-11-11c-0.8-0.8-0.8-2.1,0-2.9l11-11c0.8-0.8,2.1-0.8,2.9,0l11,11
					c0.8,0.8,0.8,2.1,0,2.9l-11,11C548.6,659.3,547.3,659.3,546.5,658.5z"/>
			</g>
		</g>
	</g>
</g>
</svg>
